<svg width="24" height="24" viewBox="0 0 24 24" fill="none" xmlns="http://www.w3.org/2000/svg">
<path d="M7.69 9.915H16.31M7.69 9.915H2.75M7.69 9.915L11.34 19.966M7.69 9.915L10.09 5.982L10.64 4.97M16.31 9.915H21.25M16.31 9.915L12.66 19.966M16.31 9.915L13.91 5.982L13.344 4.97M2.75 9.915C2.75 10.335 2.829 10.755 2.986 11.151C3.198 11.686 3.628 12.179 4.486 13.164L7.953 17.14C9.35 18.742 10.048 19.544 10.876 19.838C11.0287 19.892 11.1833 19.9347 11.34 19.966M2.75 9.915C2.75 9.495 2.829 9.075 2.986 8.678C3.198 8.143 3.628 7.651 4.486 6.665C4.953 6.131 5.186 5.864 5.456 5.657C5.85742 5.35107 6.3226 5.1395 6.817 5.038C7.151 4.97 7.505 4.97 8.214 4.97H10.64M11.34 19.966C11.7758 20.0522 12.2242 20.0522 12.66 19.966M10.64 4.97H13.344M21.25 9.915C21.25 10.335 21.171 10.755 21.014 11.151C20.802 11.686 20.372 12.179 19.514 13.164L16.047 17.14C14.65 18.742 13.952 19.544 13.124 19.838C12.9726 19.8916 12.8175 19.9343 12.66 19.966M21.25 9.915C21.25 9.495 21.171 9.075 21.014 8.678C20.802 8.143 20.372 7.651 19.514 6.665C19.047 6.131 18.814 5.864 18.544 5.657C18.1426 5.35107 17.6774 5.1395 17.183 5.038C16.849 4.97 16.495 4.97 15.786 4.97H13.344" stroke="black" stroke-width="1.5" stroke-linecap="round" stroke-linejoin="round"/>
</svg>
