<svg width="24" height="24" viewBox="0 0 24 24" fill="none" xmlns="http://www.w3.org/2000/svg">
<path d="M12 2C17.523 2 22 6.477 22 12C22 17.523 17.523 22 12 22C6.477 22 2 17.523 2 12C2 6.477 6.477 2 12 2ZM13.683 15.95C12.5619 16.0152 11.4381 16.0152 10.317 15.95C10.453 16.736 10.626 17.444 10.827 18.048C11.079 18.804 11.357 19.344 11.617 19.674C11.705 19.784 11.84 20 12.002 20C12.147 19.987 12.304 19.773 12.382 19.674C12.642 19.344 12.921 18.804 13.172 18.048C13.3943 17.3624 13.5657 16.6611 13.683 15.95ZM19.513 14.755C19.2477 14.869 18.97 14.974 18.68 15.07C17.828 15.354 16.832 15.582 15.74 15.74C15.6042 16.7379 15.38 17.7218 15.07 18.68C14.974 18.97 14.869 19.2477 14.755 19.513C15.8454 19.1119 16.8356 18.4787 17.6571 17.6571C18.4787 16.8356 19.1119 15.8454 19.513 14.755ZM4.487 14.755C4.88811 15.8454 5.52134 16.8356 6.34287 17.6571C7.1644 18.4787 8.15462 19.1119 9.245 19.513C9.1288 19.2397 9.02371 18.9618 8.93 18.68C8.62002 17.7218 8.39581 16.7379 8.26 15.74C7.26209 15.6042 6.27822 15.38 5.32 15.07C5.03 14.974 4.75233 14.869 4.487 14.755ZM10.072 10.072C9.97468 11.3555 9.97468 12.6445 10.072 13.928C11.354 14.025 12.646 14.025 13.928 13.928C14.0253 12.6445 14.0253 11.3555 13.928 10.072C12.6445 9.97468 11.3555 9.97468 10.072 10.072ZM15.95 10.317C16.0152 11.4381 16.0152 12.5619 15.95 13.683C16.6611 13.5657 17.3624 13.3953 18.048 13.173C18.804 12.921 19.344 12.643 19.674 12.383C19.784 12.296 20 12.159 20 11.998C19.987 11.853 19.773 11.696 19.674 11.618C19.344 11.358 18.804 11.079 18.048 10.828C17.3624 10.6057 16.6611 10.4343 15.95 10.317ZM8.05 10.317C7.264 10.453 6.557 10.626 5.952 10.827C5.196 11.079 4.657 11.357 4.326 11.617C4.086 11.807 4.014 11.95 4.003 11.985C3.958 12.135 4.233 12.308 4.326 12.382C4.656 12.642 5.196 12.921 5.952 13.172C6.557 13.374 7.264 13.547 8.05 13.682C7.98258 12.5617 7.98258 11.4373 8.05 10.317ZM9.245 4.487C8.15462 4.88811 7.1644 5.52134 6.34287 6.34287C5.52134 7.1644 4.88811 8.15462 4.487 9.245C4.75233 9.131 5.03 9.026 5.32 8.93C6.27822 8.62002 7.26209 8.39581 8.26 8.26C8.418 7.168 8.646 6.172 8.93 5.32C9.026 5.03 9.131 4.75233 9.245 4.487ZM14.755 4.487C14.869 4.753 14.974 5.03067 15.07 5.32C15.354 6.172 15.582 7.168 15.74 8.26C16.832 8.418 17.828 8.646 18.68 8.93C18.97 9.026 19.2477 9.131 19.513 9.245C19.1119 8.15462 18.4787 7.1644 17.6571 6.34287C16.8356 5.52134 15.8454 4.88811 14.755 4.487ZM12 4C11.861 4 11.688 4.237 11.618 4.326C11.358 4.656 11.079 5.196 10.828 5.952C10.6057 6.63759 10.4353 7.33889 10.318 8.05C11.4383 7.98258 12.5617 7.98258 13.682 8.05C13.5647 7.33889 13.3943 6.63759 13.172 5.952C12.921 5.196 12.642 4.657 12.382 4.326C12.312 4.236 12.14 4 12 4Z" fill="black"/>
</svg>
